<svg id="logo" xmlns="http://www.w3.org/2000/svg" xmlns:xlink="http://www.w3.org/1999/xlink" viewBox="0 0 594 72"><defs><style>.cls-1{fill:#fff;}.cls-2{fill-rule:evenodd;fill:url(#linear-gradient);}</style><linearGradient id="linear-gradient" x1="3.93" y1="73.57" x2="79.07" y2="-1.57" gradientUnits="userSpaceOnUse"><stop offset="0" stop-color="#9945ff"/><stop offset="0.14" stop-color="#8a53f4"/><stop offset="0.42" stop-color="#6377d6"/><stop offset="0.79" stop-color="#24b0a7"/><stop offset="0.99" stop-color="#00d18c"/><stop offset="1" stop-color="#00d18c"/></linearGradient></defs><path class="cls-1" d="M175.15,28.8h-43.3V14.4h54.51V0H131.75a14.3,14.3,0,0,0-14.3,14.3V28.9a14.3,14.3,0,0,0,14.3,14.3h43.3V57.6H118.48V72h56.67a14.3,14.3,0,0,0,14.3-14.3V43.1A14.3,14.3,0,0,0,175.15,28.8Z"/><path class="cls-1" d="M259,0H215.54a14.29,14.29,0,0,0-14.29,14.3V57.7A14.29,14.29,0,0,0,215.54,72H259a14.3,14.3,0,0,0,14.3-14.3V14.3A14.3,14.3,0,0,0,259,0Zm-.1,57.6h-43.2V14.4h43.2Z"/><path class="cls-1" d="M411.1,0H368.72a14.3,14.3,0,0,0-14.3,14.3V72h14.4V48.34H411V72h14.4V14.3A14.29,14.29,0,0,0,411.1,0ZM411,33.94H368.82V14.4H411Z"/><path class="cls-1" d="M579.7,0H537.33A14.3,14.3,0,0,0,523,14.3V72h14.4V48.34H579.6V72H594V14.3A14.3,14.3,0,0,0,579.7,0Zm-.1,33.94H537.43V14.4H579.6Z"/><path class="cls-1" d="M495.81,57.6h-5.76L469.41,6a9.53,9.53,0,0,0-8.85-6H447.74a9.53,9.53,0,0,0-9.53,9.53V72h14.4V14.4h5.76L479,66a9.51,9.51,0,0,0,8.84,6h12.82a9.53,9.53,0,0,0,9.53-9.53V0h-14.4Z"/><path class="cls-1" d="M300.46,0h-14.4V57.7A14.3,14.3,0,0,0,300.36,72h43.3V57.6h-43.2Z"/><path class="cls-2" d="M15.24,54.9a2.8,2.8,0,0,1,2-.9l62.84,0a1.38,1.38,0,0,1,1,2.31L67.76,71.1a2.8,2.8,0,0,1-2,.9L2.88,72a1.38,1.38,0,0,1-1-2.31Zm65.9-12.26a1.38,1.38,0,0,1-1,2.31L17.28,45a2.8,2.8,0,0,1-2-.9L1.86,29.36a1.38,1.38,0,0,1,1-2.31L65.72,27a2.8,2.8,0,0,1,2,.9ZM15.24.9a2.8,2.8,0,0,1,2-.9L80.12.05a1.38,1.38,0,0,1,1,2.31L67.76,17.1a2.8,2.8,0,0,1-2,.9L2.88,18a1.38,1.38,0,0,1-1-2.31Z"/></svg>