<?xml version="1.0" encoding="utf-8"?>
<!-- Generator: Adobe Illustrator 26.0.1, SVG Export Plug-In . SVG Version: 6.00 Build 0)  -->
<svg version="1.1" id="Layer_1" xmlns="http://www.w3.org/2000/svg" xmlns:xlink="http://www.w3.org/1999/xlink" x="0px" y="0px"
	 viewBox="0 0 512 512" style="enable-background:new 0 0 512 512;" xml:space="preserve">
<style type="text/css">
	.st0{fill:#00D18C;}
</style>
<g>
	<path class="st0" d="M94.3,377.3v26.9c14.9,0,26.9,12.1,26.9,26.9c0,14.9-12.1,26.9-26.9,26.9c-14.9,0-26.9-12.1-26.9-26.9
		c0-14.9,12.1-26.9,26.9-26.9V377.3v-26.9c-44.7,0-80.8,36.2-80.8,80.8c0,44.7,36.2,80.8,80.8,80.8c44.7,0,80.8-36.2,80.8-80.8
		c0-44.7-36.2-80.8-80.8-80.8V377.3z"/>
	<path class="st0" d="M94.3,53.9v26.9c14.9,0,26.9,12.1,26.9,26.9c0,14.9-12.1,26.9-26.9,26.9c-14.9,0-26.9-12.1-26.9-26.9
		c0-14.9,12.1-26.9,26.9-26.9V53.9v-27c-44.7,0-80.8,36.2-80.8,80.8c0,44.7,36.2,80.8,80.8,80.8c44.7,0,80.8-36.2,80.8-80.8
		c0-44.7-36.2-80.8-80.8-80.8V53.9z"/>
	<path class="st0" d="M417.7,377.3v26.9c14.9,0,26.9,12.1,26.9,26.9c0,14.9-12.1,26.9-26.9,26.9c-14.9,0-26.9-12.1-26.9-26.9
		c0-14.9,12.1-26.9,26.9-26.9V377.3v-26.9c-44.7,0-80.8,36.2-80.8,80.8c0,44.7,36.2,80.8,80.8,80.8c44.7,0,80.8-36.2,80.8-80.8
		c0-44.7-36.2-80.8-80.8-80.8V377.3z"/>
	<path class="st0" d="M67.4,161.7v215.6c0,14.9,12.1,26.9,26.9,26.9c14.9,0,26.9-12.1,26.9-26.9V161.7c0-14.9-12.1-26.9-26.9-26.9
		C79.4,134.7,67.4,146.8,67.4,161.7"/>
	<path class="st0" d="M229.1,134.7h134.7c14.9,0,26.9,12.1,26.9,26.9v215.6c0,14.9,12.1,26.9,26.9,26.9s26.9-12.1,26.9-26.9V161.7
		c0-44.7-36.2-80.8-80.8-80.8H229.1c-14.9,0-26.9,12.1-26.9,26.9C202.1,122.7,214.2,134.7,229.1,134.7L229.1,134.7z"/>
	<path class="st0" d="M328.9,169.6l-61.8-61.8L328.9,46c10.5-10.5,10.5-27.6,0-38.1s-27.6-10.5-38.1,0L210,88.7
		c-5,5-7.9,12-7.9,19.1s2.9,14,7.9,19.1l80.8,80.8c10.5,10.5,27.6,10.5,38.1,0S339.5,180.1,328.9,169.6L328.9,169.6z"/>
</g>
</svg>
