<?xml version="1.0" encoding="utf-8"?>
<!-- Generator: Adobe Illustrator 25.1.0, SVG Export Plug-In . SVG Version: 6.00 Build 0)  -->
<svg version="1.1"
	 id="Layer_1" text-rendering="geometricPrecision" shape-rendering="geometricPrecision" image-rendering="optimizeQuality" xmlns:xodm="http://www.corel.com/coreldraw/odm/2003"
	 xmlns="http://www.w3.org/2000/svg" xmlns:xlink="http://www.w3.org/1999/xlink" x="0px" y="0px" viewBox="0 0 1024 1024"
	 style="enable-background:new 0 0 1024 1024;" xml:space="preserve">
<style type="text/css">
	.st0{fill:#8C8C8C;}
	.st1{fill:#00D18C;}
	.st2{fill:#FFFFFF;}
</style>
<circle id="E2" class="st0" cx="512" cy="512" r="512"/>
<circle id="E1" class="st1" cx="512" cy="512" r="480"/>
<g>
	<path class="st2" d="M636.6,265.2c53.9,0,96.6,43.4,96.6,96.6v122.5c0,53.2-42.7,96.6-96.6,96.6H464.4c-2.8,0-4.2,1.4-4.2,4.2V632
		h-92.4v-46.9c0-53.2,43.4-96.6,96.6-96.6h172.2c2.8,0,4.9-1.4,4.9-4.2V361.8c0-2.8-2.1-4.9-4.9-4.9H296.4v-91.7H636.6z
		 M367.8,769.2v-91.7h92.4v91.7H367.8z"/>
</g>
</svg>
