<?xml version="1.0" encoding="utf-8"?>
<!-- Generator: Adobe Illustrator 26.0.1, SVG Export Plug-In . SVG Version: 6.00 Build 0)  -->
<svg version="1.1" id="Layer_1" xmlns="http://www.w3.org/2000/svg" xmlns:xlink="http://www.w3.org/1999/xlink" x="0px" y="0px"
	 viewBox="0 0 16 16" style="enable-background:new 0 0 16 16;" xml:space="preserve">
<style type="text/css">
	.st0{fill:#FA3C3C;}
</style>
<path class="st0" d="M0.3,0.3c0.4-0.4,1.2-0.4,1.6,0c0,0,0,0,0,0l6,6l6-6c0.4-0.4,1.2-0.4,1.6,0c0.4,0.4,0.4,1.2,0,1.6l-6,6l6,6
	c0.4,0.4,0.4,1.2,0,1.6c-0.4,0.4-1.2,0.4-1.6,0l-6-6l-6,6c-0.4,0.4-1.2,0.4-1.6,0c-0.4-0.4-0.4-1.2,0-1.6l6-6l-6-6
	C-0.1,1.5-0.1,0.8,0.3,0.3C0.3,0.3,0.3,0.3,0.3,0.3z"/>
</svg>
