<svg id="logo" xmlns="http://www.w3.org/2000/svg" xmlns:xlink="http://www.w3.org/1999/xlink" viewBox="0 0 480 420"><defs><style>.cls-1{fill-rule:evenodd;fill:url(#linear-gradient);}</style><linearGradient id="linear-gradient" x1="20.84" y1="429.16" x2="459.16" y2="-9.16" gradientUnits="userSpaceOnUse"><stop offset="0" stop-color="#9945ff"/><stop offset="0.2" stop-color="#7962e7"/><stop offset="1" stop-color="#00d18c"/></linearGradient></defs><path class="cls-1" d="M86.84,320.26A16.07,16.07,0,0,1,98.72,315l366.56.3a8.06,8.06,0,0,1,5.94,13.49l-78.06,85.95A16.07,16.07,0,0,1,381.27,420l-366.55-.3a8.06,8.06,0,0,1-5.94-13.49Zm384.38-71.55a8.06,8.06,0,0,1-5.94,13.49l-366.55.3a16.07,16.07,0,0,1-11.89-5.26l-78.06-86a8.06,8.06,0,0,1,5.94-13.49l366.56-.3a16.07,16.07,0,0,1,11.88,5.26ZM86.84,5.26A16.07,16.07,0,0,1,98.72,0L465.28.3a8.06,8.06,0,0,1,5.94,13.49L393.16,99.74A16.07,16.07,0,0,1,381.27,105l-366.55-.3A8.06,8.06,0,0,1,8.78,91.21Z"/></svg>